<?xml version="1.0" encoding="UTF-8" standalone="no"?>
<svg width="531px" height="214px" viewBox="0 0 531 214" version="1.1" xmlns="http://www.w3.org/2000/svg" xmlns:xlink="http://www.w3.org/1999/xlink">
    <!-- Generator: Sketch 39.1 (31720) - http://www.bohemiancoding.com/sketch -->
    <title>alertlogo</title>
    <desc>Created with Sketch.</desc>
    <defs></defs>
    <g id="Page-1" stroke="none" stroke-width="1" fill="none" fill-rule="evenodd">
        <g id="alertlogo">
            <g id="XMLID_109_">
                <path d="M176.2,176 L151.2,176 C148.3,176 145.4,178.9 145.4,181.8 L145.4,206.8 C145.4,209.7 148.3,212.6 151.2,212.6 L176.2,212.6 C179.1,212.6 182,209.7 182,206.8 L182,181.8 C181.9,177.9 179,176 176.2,176 L176.2,176 Z" id="XMLID_2004_" fill="#FFBD2E"></path>
                <path d="M181,0.4 L146.4,0.4 C143.5,0.4 140.6,3.3 140.6,6.2 L145.4,154.9 C145.4,157.8 148.3,160.7 151.2,160.7 L176.2,160.7 C179.1,160.7 182,157.8 182,154.9 L186.8,6.2 C186.7,3.3 183.8,0.4 181,0.4 L181,0.4 Z" id="XMLID_2002_" fill="#FFBD2E"></path>
                <path d="M116.7,211.5 L93.7,211.5 C90.8,211.5 87.9,208.6 87.9,205.7 L87.9,200.9 C75.4,208.6 62,213.4 48.5,213.4 C25.5,213.4 0.5,204.8 0.5,167.3 L0.5,166.3 C0.5,134.6 19.7,118.3 67.6,118.3 L85,118.3 L85,105 C85,86.8 77.3,82.9 61,82.9 C43.7,82.9 25.5,83.9 15.9,84.8 L14.9,84.8 C12,84.8 10.1,83.8 10.1,80 L10.1,61.8 C10.2,58.9 12.1,57 15,56 C26.5,54.1 41.9,51.2 61,51.2 C100.4,51.2 121.4,68.5 121.4,104 L121.4,206.6 C122.5,209.6 120.6,211.5 116.7,211.5 L116.7,211.5 Z M86,142.4 L68.7,142.4 C43.7,142.4 38,150.1 38,165.4 L38,166.4 C38,179.8 43.8,183.7 58.2,183.7 C67.8,183.7 78.4,180.8 86,176 L86,142.4 L86,142.4 Z" id="XMLID_2682_" fill="#FFFFFF"></path>
                <path d="M331.6,143.4 L241.4,143.4 L241.4,144.4 C241.4,160.7 248.1,179.9 275,179.9 C295.2,179.9 314.4,178 325.9,177 L326.9,177 C329.8,177 331.7,178 331.7,180.8 L331.7,199 C331.7,203.8 330.7,205.7 325.9,205.7 C310.5,208.6 297.1,210.5 272.1,210.5 C244.3,210.5 205,194.2 205,139.6 L205,121.3 C205,78.1 229,51.3 271.1,51.3 C313.2,51.3 336.3,80.1 336.3,121.3 L336.3,136.7 C336.4,140.5 335.4,143.4 331.6,143.4 L331.6,143.4 Z M299.9,116.5 C299.9,95.4 288.4,82.9 271.1,82.9 C253.8,82.9 241.3,95.4 241.3,116.5 L241.3,117.5 L299.8,117.5 L299.8,116.5 L299.9,116.5 Z" id="XMLID_2679_" fill="#FFFFFF"></path>
                <path d="M425.6,83 C416,83 398.7,84.9 386.2,97.4 L386.2,206.7 C386.2,209.6 383.3,212.5 380.4,212.5 L355.4,212.5 C352.5,212.5 349.6,209.6 349.6,206.7 L349.6,60.9 C349.6,58 352.5,55.1 355.4,55.1 L379.4,55.1 C382.3,55.1 385.2,58 385.2,60.9 L385.2,69.5 C395.8,53.2 415,55.1 425.5,55.1 C428.4,55.1 431.3,58 431.3,60.9 L431.3,77.2 C431.3,80.1 428.4,83 425.6,83 L425.6,83 Z" id="XMLID_2000_" fill="#FFFFFF"></path>
                <path d="M524.3,184.7 L509.9,184.7 C500.3,184.7 499.3,182.8 499.3,169.3 L499.3,83 L525.2,83 C528.1,83 531,80.1 531,77.2 L531,60.9 C531,58 528.1,55.1 525.2,55.1 L499.3,55.1 L499.3,35 C499.3,32.1 496.4,30.2 493.5,29.2 L467.6,29.2 C464.7,30.2 461.8,32.1 461.8,35 L461.8,55.2 L448.4,55.2 C445.5,55.2 442.6,58.1 442.6,61 L442.6,77.3 C442.6,80.2 445.5,83.1 448.4,83.1 L461.8,83.1 L461.8,169.4 C461.8,206.8 474.3,213.6 506,213.6 C511.8,213.6 517.5,212.6 525.2,211.7 C529,210.7 530,209.8 530,206.9 L530,189.6 C530.1,186.6 528.2,184.7 524.3,184.7 L524.3,184.7 Z" id="XMLID_1859_" fill="#FFFFFF"></path>
            </g>
        </g>
    </g>
</svg>