<?xml version="1.0" encoding="utf-8"?>
<!-- Generator: Adobe Illustrator 18.1.0, SVG Export Plug-In . SVG Version: 6.00 Build 0)  -->
<svg version="1.1" id="图层_1" xmlns="http://www.w3.org/2000/svg" xmlns:xlink="http://www.w3.org/1999/xlink" x="0px" y="0px"
	 viewBox="-430 -230 960 560" enable-background="new -430 -230 960 560" xml:space="preserve">
<g id="XMLID_109_">
	<path id="XMLID_2004_" fill="#25C151" d="M175.2,119h-25c-2.9,0-5.8,2.9-5.8,5.8v25c0,2.9,2.9,5.8,5.8,5.8h25
		c2.9,0,5.8-2.9,5.8-5.8v-25C180.9,120.9,178,119,175.2,119z"/>
	<path id="XMLID_2002_" fill="#25C151" d="M180-56.6h-34.6c-2.9,0-5.8,2.9-5.8,5.8l4.8,148.7c0,2.9,2.9,5.8,5.8,5.8h25
		c2.9,0,5.8-2.9,5.8-5.8l4.8-148.7C185.7-53.7,182.8-56.6,180-56.6z"/>
	<g id="XMLID_1818_">
		<g id="XMLID_1845_">
			<path id="XMLID_1416_" fill="#FFFFFF" d="M-363.9,156.5c-43.2,0-66.1-28.8-66.1-69.1V65.2c0-39.4,23-68.1,66.1-68.1
				s66.1,28.8,66.1,69v22.1C-298.6,127.7-320.7,156.5-363.9,156.5z M-334.1,65.3c0-23-10.6-37.4-29.8-37.4s-29.8,14.4-29.8,37.4
				v22.1c0,23,10.6,37.4,29.8,37.4c19.2,0,29.8-14.4,29.8-37.5V65.3z"/>
		</g>
	</g>
	<path id="XMLID_2685_" fill="#FFFFFF" d="M-161.4,154.5h-25c-2.9,0-5.8-2.9-5.8-5.8V58.5c0-24-1.9-30.7-23-30.7
		c-9.6,0-19.2,3.8-30.7,9.6v111.3c0,2.9-2.9,5.8-5.8,5.8h-25c-2.9,0-5.8-2.9-5.8-5.8V3.9c0-2.9,2.9-5.8,5.8-5.8h24
		c2.9,0,5.8,2.9,5.8,5.8v6.7c14.4-10.6,25-13.4,43.2-13.4c39.4,0,48,26.9,48,61.3v90.1C-155.7,151.7-158.6,154.5-161.4,154.5z"/>
	<path id="XMLID_2682_" fill="#FFFFFF" d="M115.7,154.5h-23c-2.9,0-5.8-2.9-5.8-5.8v-4.8c-12.5,7.7-25.9,12.5-39.4,12.5
		c-23,0-48-8.6-48-46.1v-1c0-31.7,19.2-48,67.1-48H84V48c0-18.2-7.7-22.1-24-22.1c-17.3,0-35.5,1-45.1,1.9c-1,0-1,0-1,0
		c-2.9,0-4.8-1-4.8-4.8V4.8C9.2,1.9,11.1,0,14-1C25.5-2.9,40.9-5.8,60-5.8c39.4,0,60.4,17.3,60.4,52.8v102.6
		C121.5,152.6,119.6,154.5,115.7,154.5z M85,85.4H67.7c-25,0-30.7,7.7-30.7,23v1c0,13.4,5.8,17.3,20.2,17.3c9.6,0,20.2-2.9,27.8-7.7
		V85.4z"/>
	<path id="XMLID_2679_" fill="#FFFFFF" d="M330.6,86.4h-90.2v1c0,16.3,6.7,35.5,33.6,35.5c20.2,0,39.4-1.9,50.9-2.9h1
		c2.9,0,4.8,1,4.8,3.8V142c0,4.8-1,6.7-5.8,6.7c-15.4,2.9-28.8,4.8-53.8,4.8c-27.8,0-67.1-16.3-67.1-70.9V64.3c0-43.2,24-70,66.1-70
		s65.2,28.8,65.2,70v15.4C335.4,83.5,334.4,86.4,330.6,86.4z M298.9,59.5c0-21.1-11.5-33.6-28.8-33.6s-29.8,12.5-29.8,33.6v1h58.5
		V59.5z"/>
	<path id="XMLID_2000_" fill="#FFFFFF" d="M424.6,26c-9.6,0-26.9,1.9-39.4,14.4v109.3c0,2.9-2.9,5.8-5.8,5.8h-25
		c-2.9,0-5.8-2.9-5.8-5.8V3.9c0-2.9,2.9-5.8,5.8-5.8h24c2.9,0,5.8,2.9,5.8,5.8v8.6C394.8-3.8,414-1.9,424.5-1.9
		c2.9,0,5.8,2.9,5.8,5.8v16.3C430.3,23.1,427.4,26,424.6,26z"/>
	<path id="XMLID_1859_" fill="#FFFFFF" d="M523.3,127.7h-14.4c-9.6,0-10.6-1.9-10.6-15.4V26h25.9c2.9,0,5.8-2.9,5.8-5.8V3.9
		c0-2.9-2.9-5.8-5.8-5.8h-25.9V-22c0-2.9-2.9-4.8-5.8-5.8h-25.9c-2.9,1-5.8,2.9-5.8,5.8v20.2h-13.4c-2.9,0-5.8,2.9-5.8,5.8v16.3
		c0,2.9,2.9,5.8,5.8,5.8h13.4v86.3c0,37.4,12.5,44.2,44.2,44.2c5.8,0,11.5-1,19.2-1.9c3.8-1,4.8-1.9,4.8-4.8v-17.3
		C529.1,129.6,527.2,127.7,523.3,127.7z"/>
	<g id="XMLID_1850_">
		<path id="XMLID_1852_" fill="#FFFFFF" d="M-14.7,86.4h-90.1v1c0,16.3,6.7,35.5,33.6,35.5c20.2,0,39.4-1.9,50.9-2.9h1
			c2.9,0,4.8,1,4.8,3.8V142c0,4.8-1,6.7-5.8,6.7c-15.4,2.9-28.8,4.8-53.8,4.8c-27.8,0-67.1-16.3-67.1-70.9V64.3
			c0-43.2,24-70,66.1-70s65.2,28.8,65.2,70v15.4C-9.9,83.5-10.9,86.4-14.7,86.4z M-46.4,59.5c0-21.1-11.5-33.6-28.8-33.6
			s-29.8,12.5-29.8,33.6v1h58.5V59.5z"/>
	</g>
</g>
</svg>
